<?xml version="1.0" encoding="UTF-8" standalone="no"?>
<!-- Generator: Adobe Illustrator 21.0.2, SVG Export Plug-In . SVG Version: 6.00 Build 0)  -->

<svg
   xmlns:dc="http://purl.org/dc/elements/1.1/"
   xmlns:cc="http://creativecommons.org/ns#"
   xmlns:rdf="http://www.w3.org/1999/02/22-rdf-syntax-ns#"
   xmlns:svg="http://www.w3.org/2000/svg"
   xmlns="http://www.w3.org/2000/svg"
   xmlns:sodipodi="http://sodipodi.sourceforge.net/DTD/sodipodi-0.dtd"
   xmlns:inkscape="http://www.inkscape.org/namespaces/inkscape"
   version="1.1"
   x="0px"
   y="0px"
   viewBox="0 0 32 32"
   xml:space="preserve"
   id="svg2"
   inkscape:version="0.92.1 r15371"
   sodipodi:docname="loader.svg"
   width="34.133335"
   height="34.133335"><metadata
     id="metadata19"><rdf:RDF><cc:Work
         rdf:about=""><dc:format>image/svg+xml</dc:format><dc:type
           rdf:resource="http://purl.org/dc/dcmitype/StillImage" /><dc:title /></cc:Work></rdf:RDF></metadata><defs
     id="defs17" /><sodipodi:namedview
     pagecolor="#ffffff"
     bordercolor="#666666"
     borderopacity="1"
     objecttolerance="10"
     gridtolerance="10"
     guidetolerance="10"
     inkscape:pageopacity="0"
     inkscape:pageshadow="2"
     inkscape:window-width="997"
     inkscape:window-height="661"
     id="namedview15"
     showgrid="false"
     inkscape:zoom="5.2149125"
     inkscape:cx="1.3326464"
     inkscape:cy="16"
     inkscape:window-x="0"
     inkscape:window-y="0"
     inkscape:window-maximized="0"
     inkscape:current-layer="svg2" /><style
     type="text/css"
     id="style4">
	.icon_x002D_canvas_x002D_transparent{opacity:0;fill:#F6F6F6;}
	.st0{fill:#AA278F;}
	.st1{fill:#FFFFFF;}
</style><g
     id="canvas"><path
       class="icon_x002D_canvas_x002D_transparent"
       d="m 16,-20 h -16 v -16 h 16 z m 16,20 h -32 v 32 h 32 z m 16,100 h -48 v -48 h 48 z m 16,84 h -64 v -64 h 64 z m 52,-152 h -32 v -32 h 32 z m -16,-68 h -16 v 16 h 16 z m 32,88 h -48 v 48 h 48 z m 16,68 h -64 v 64 h 64 z"
       id="path7"
       inkscape:connector-curvature="0"
       style="opacity:0;fill:#f6f6f6" /></g><g
     id="iconBg"><path
       class="st0"
       d="m 32,15.994 v -0.005 -0.006 c 0,-0.108 -0.005,-0.209 -0.016,-0.303 h -0.001 c -0.032,-0.285 -0.112,-0.504 -0.239,-0.656 -0.171,-0.204 -0.459,-0.435 -0.864,-0.691 -0.406,-0.256 -0.735,-0.532 -0.986,-0.827 -0.252,-0.296 -0.442,-0.734 -0.57,-1.316 -0.049,-0.227 -0.087,-0.719 -0.112,-1.473 v -2.021 c 0,-0.38 -0.031,-0.723 -0.076,-1.049 -10e-4,-0.063 -0.002,-0.123 -0.004,-0.188 -0.009,-0.782 -0.18,-1.475 -0.513,-2.078 -0.333,-0.604 -0.805,-1.071 -1.416,-1.401 -0.611,-0.33 -1.305,-0.495 -2.081,-0.495 h -18.846 -0.005 c 0,0 -0.674,0.067 -0.962,0.201 -0.184,0.085 -0.355,0.186 -0.521,0.295 -0.292,0.159 -0.559,0.353 -0.798,0.59 -0.693,0.688 -1.061,1.601 -1.113,2.734 -0.056,0.398 -0.088,0.823 -0.088,1.283 v 2.558 c -0.019,0.495 -0.079,0.953 -0.183,1.373 -0.104,0.419 -0.282,0.762 -0.532,1.033 -0.071,0.062 -0.138,0.127 -0.202,0.196 -0.265,0.238 -0.638,0.511 -1.13,0.823 -0.404,0.262 -0.64,0.633 -0.715,1.108 v 0 c -0.001,0.007 -0.001,0.015 -0.002,0.023 -0.013,0.092 -0.022,0.187 -0.023,0.287 -0.001,0.006 -0.002,0.011 -0.002,0.017 v 0.005 0.006 c 0,0.108 0.005,0.209 0.016,0.303 h 0.001 c 0.032,0.285 0.112,0.504 0.239,0.656 0.171,0.204 0.459,0.435 0.864,0.691 0.406,0.256 0.735,0.532 0.986,0.827 0.252,0.296 0.442,0.734 0.57,1.316 0.049,0.227 0.087,0.719 0.112,1.473 v 2.019 c 0,0.38 0.031,0.723 0.076,1.049 0.001,0.063 0.002,0.123 0.004,0.188 0.009,0.782 0.18,1.475 0.513,2.078 0.333,0.604 0.805,1.071 1.416,1.401 0.611,0.33 1.305,0.495 2.081,0.495 h 18.852 c 0.35,0 0.673,-0.067 0.961,-0.201 0.184,-0.085 0.356,-0.187 0.521,-0.296 0.291,-0.159 0.559,-0.353 0.798,-0.59 0.693,-0.688 1.061,-1.601 1.113,-2.734 0.056,-0.398 0.088,-0.823 0.088,-1.283 v -2.558 c 0.019,-0.495 0.079,-0.953 0.183,-1.373 0.104,-0.419 0.282,-0.762 0.532,-1.033 0.071,-0.062 0.138,-0.127 0.202,-0.196 0.265,-0.238 0.638,-0.511 1.13,-0.823 0.404,-0.262 0.64,-0.633 0.715,-1.108 h 0.002 c 10e-4,-0.007 10e-4,-0.015 0.002,-0.023 0.013,-0.092 0.022,-0.187 0.023,-0.287 -0.001,-0.003 0,-0.008 0,-0.014 z"
       id="path10"
       inkscape:connector-curvature="0"
       style="fill:#aa278f"
       sodipodi:nodetypes="scscccccccscccssccccccscccccccccscscccccccscccsssccccscccccccccs" /></g><g
     id="iconFg"><path
       class="st1"
       d="m 27.366,16.522 0.819,-0.518 -0.821,-0.516 c -0.382,-0.24 -0.693,-0.49 -0.927,-0.744 -0.221,-0.241 -0.408,-0.543 -0.554,-0.896 -0.153,-0.368 -0.264,-0.819 -0.328,-1.339 -0.068,-0.551 -0.103,-1.21 -0.103,-1.961 0,-0.781 -0.016,-1.365 -0.05,-1.786 -0.039,-0.489 -0.123,-0.852 -0.258,-1.112 -0.164,-0.315 -0.406,-0.538 -0.718,-0.661 -0.223,-0.089 -0.527,-0.154 -0.924,-0.199 -0.141,-0.019 -0.251,-0.085 -0.356,-0.213 -0.11,-0.133 -0.165,-0.344 -0.165,-0.627 0,-0.41 0.086,-0.811 1.121,-0.811 0.636,0 1.196,0.127 1.666,0.376 0.464,0.247 0.818,0.589 1.085,1.046 0.267,0.458 0.406,0.995 0.413,1.597 0.064,3.554 0.129,4.265 0.184,4.492 0.153,0.63 0.382,1.109 0.701,1.464 0.287,0.319 0.635,0.602 1.035,0.843 0.29,0.175 0.501,0.341 0.627,0.493 0.035,0.043 0.116,0.181 0.116,0.554 0,0.383 -0.12,0.628 -0.39,0.794 -0.606,0.373 -1.041,0.699 -1.331,0.997 -0.324,0.334 -0.552,0.752 -0.678,1.24 -0.112,0.437 -0.177,1.05 -0.198,1.875 -0.02,0.773 -0.042,1.741 -0.066,2.904 -0.021,0.941 -0.306,1.668 -0.873,2.222 -0.568,0.554 -1.317,0.823 -2.291,0.823 -0.409,0 -0.71,-0.077 -0.895,-0.23 -0.155,-0.128 -0.226,-0.32 -0.226,-0.604 0,-0.179 0.03,-0.336 0.093,-0.479 0.053,-0.122 0.117,-0.212 0.188,-0.268 0.068,-0.053 0.143,-0.082 0.24,-0.094 0.414,-0.055 0.725,-0.127 0.951,-0.219 0.317,-0.131 0.567,-0.378 0.723,-0.716 0.124,-0.269 0.2,-0.625 0.233,-1.089 0.029,-0.402 0.044,-0.968 0.044,-1.725 0.016,-1.061 0.077,-1.896 0.182,-2.481 0.095,-0.53 0.274,-0.987 0.533,-1.359 0.261,-0.375 0.665,-0.736 1.198,-1.073 z m -16.618,6.519 h 10.458 c 0.415,0 0.751,-0.336 0.751,-0.751 l -0.001,-3.709 c -0.134,-0.449 -0.518,-0.492 -0.878,-0.15 -0.033,0 -0.393,0.443 -1.22,0.443 -0.988,-0.031 -1.794,-0.763 -1.944,-1.715 h -0.011 c -0.007,-0.07 -0.007,-0.456 0,-0.526 h 0.011 c 0.15,-0.953 0.956,-1.685 1.944,-1.715 0.827,0 1.187,0.443 1.22,0.443 0.35,0.332 0.738,0.252 0.879,-0.147 l 10e-4,-3.432 c 0,-0.349 -0.239,-0.657 -0.562,-0.741 -0.061,0.016 -3.259,0 -3.259,0 -0.786,0.065 -1.063,-0.466 -0.624,-0.928 0,-0.033 0.443,-0.393 0.443,-1.22 -0.031,-0.988 -0.763,-1.794 -1.715,-1.944 v -0.011 c -0.07,-0.007 -0.456,-0.007 -0.526,0 v 0.011 c -0.953,0.15 -1.685,0.956 -1.715,1.944 0,0.827 0.443,1.187 0.443,1.22 0.439,0.462 0.254,0.97 -0.624,0.928 0,0 -3.198,0.016 -3.259,0 -0.323,0.084 -0.562,0.393 -0.562,0.741 v 10.508 c -10e-4,0.415 0.335,0.751 0.75,0.751 z m -6.197,-3.692 c 0.055,0.227 0.12,0.938 0.184,4.492 0.007,0.602 0.146,1.138 0.413,1.597 0.267,0.458 0.622,0.8 1.085,1.046 0.47,0.25 1.03,0.376 1.666,0.376 1.035,0 1.121,-0.4 1.121,-0.811 0,-0.283 -0.056,-0.493 -0.165,-0.627 -0.106,-0.128 -0.216,-0.194 -0.356,-0.213 -0.397,-0.045 -0.701,-0.11 -0.925,-0.199 -0.312,-0.124 -0.553,-0.346 -0.718,-0.661 -0.135,-0.259 -0.219,-0.623 -0.258,-1.112 -0.033,-0.421 -0.05,-1.005 -0.05,-1.786 0,-0.751 -0.035,-1.41 -0.103,-1.961 -0.065,-0.52 -0.175,-0.97 -0.329,-1.339 -0.147,-0.354 -0.333,-0.656 -0.554,-0.896 -0.233,-0.254 -0.545,-0.504 -0.927,-0.744 l -0.821,-0.516 0.819,-0.518 c 0.533,-0.337 0.936,-0.698 1.199,-1.075 0.259,-0.372 0.438,-0.829 0.533,-1.359 0.105,-0.585 0.166,-1.419 0.182,-2.481 0,-0.757 0.014,-1.323 0.044,-1.725 0.033,-0.464 0.109,-0.82 0.233,-1.089 0.156,-0.337 0.406,-0.584 0.723,-0.715 0.226,-0.092 0.537,-0.163 0.951,-0.219 0.097,-0.012 0.172,-0.041 0.24,-0.094 0.072,-0.055 0.136,-0.145 0.189,-0.267 0.062,-0.143 0.093,-0.299 0.093,-0.479 0,-0.284 -0.072,-0.476 -0.226,-0.604 -0.186,-0.153 -0.487,-0.23 -0.895,-0.23 -0.974,0 -1.723,0.269 -2.291,0.823 -0.567,0.554 -0.852,1.281 -0.873,2.222 -0.024,1.163 -0.045,2.131 -0.065,2.904 -0.021,0.825 -0.086,1.438 -0.198,1.875 -0.126,0.488 -0.354,0.905 -0.679,1.24 -0.289,0.298 -0.725,0.624 -1.331,0.997 -0.27,0.166 -0.39,0.41 -0.39,0.794 0,0.373 0.081,0.511 0.116,0.554 0.127,0.153 0.338,0.319 0.627,0.493 0.4,0.24 0.748,0.524 1.035,0.843 0.319,0.355 0.548,0.834 0.701,1.464 z"
       id="path13"
       inkscape:connector-curvature="0"
       style="fill:#ffffff"
       sodipodi:nodetypes="ccccccscccccsscccccccsccccccscsccccccccccssccccccccccccccccccccccccscsccccsscccccscccccccccccccccscsccccccscccc" /></g><text
     xml:space="preserve"
     style="font-style:normal;font-weight:normal;font-size:22.85349274px;line-height:1.25;font-family:sans-serif;letter-spacing:0px;word-spacing:0px;fill:#00ff00;fill-opacity:1;stroke:none;stroke-width:0.57133734;"
     x="-0.48779818"
     y="25.398561"
     id="text15"
     transform="scale(1.0867601,0.9201663)"><tspan
       sodipodi:role="line"
       id="tspan13"
       x="-0.48779818"
       y="25.398561"
       style="stroke-width:0.57133734;fill:#00ff00;">K2</tspan></text>
</svg>